<svg width="411" height="370" viewBox="0 0 411 370" fill="none" xmlns="http://www.w3.org/2000/svg">
<g clip-path="url(#clip0_148_2)">
<path d="M101.849 54.8943C104.188 56.1819 106.207 57.7229 107.907 59.5174C109.607 61.3119 111.015 63.3298 112.131 65.5713L114.145 69.774L87.6459 98.5818L48.591 101.194C47.8087 99.5618 47.0956 98.0303 46.4518 96.5994C45.808 95.1685 45.3032 93.7212 44.9375 92.2573C44.5718 90.7935 44.3427 89.2642 44.2501 87.6695C44.1575 86.0747 44.3055 84.2811 44.694 82.2885L31.8855 83.159L43.3654 107.111C44.4859 106.908 45.5562 106.863 46.5761 106.977C47.5961 107.09 48.5698 107.326 49.4973 107.684C50.4248 108.042 51.2076 108.537 51.8458 109.167C52.484 109.798 53.0223 110.527 53.4606 111.354L59.7188 124.411L40.0525 133.837L33.7943 120.78C33.4032 119.964 33.1787 119.101 33.1209 118.192C33.0632 117.283 33.1615 116.35 33.416 115.392C33.6705 114.433 34.0796 113.535 34.6432 112.696C35.2068 111.857 35.9291 111.043 36.81 110.253L24.0785 83.6896L16.2714 84.2201L58.7018 38.1929L121.158 33.9483L101.849 54.8943ZM46.9052 114.496C46.5662 113.789 45.9485 113.332 45.0521 113.126C44.1556 112.92 43.2635 113.03 42.3758 113.455C41.4881 113.881 40.8438 114.508 40.4428 115.335C40.0418 116.163 40.0108 116.931 40.3498 117.638L44.1047 125.472L50.6601 122.33L46.9052 114.496ZM30.9187 77.1998L75.9313 74.1406L106.511 40.9687L61.4984 44.0278L30.9187 77.1998ZM106.045 69.6925C105.041 67.598 103.853 65.7757 102.48 64.2259C101.107 62.676 99.3226 61.2735 97.1255 60.0184L78.728 79.9755L51.6472 81.816C51.2767 83.9337 51.2184 86.0022 51.4724 88.0213C51.7264 90.0404 52.2796 91.9831 53.1321 93.8492L53.6014 94.8284L84.8297 92.7061L106.045 69.6925Z" fill="url(#paint0_linear_148_2)"/>
</g>
<path d="M84.25 76.35L84.9 75.7H97.4V86.7C97.4 88.1 97.4167 89.3 97.45 90.3C97.4833 91.3 97.5 92.4833 97.5 93.85V126.9C97.5 128 97.4833 129.017 97.45 129.95C97.4167 130.85 97.4 131.883 97.4 133.05V144.2H91.95C89.55 144.2 87.6667 143.483 86.3 142.05C84.9333 140.617 84.25 138.667 84.25 136.2V76.35ZM120.95 104.1C121.217 104.933 121.4 105.883 121.5 106.95C121.633 107.983 121.7 108.867 121.7 109.6C121.7 110.367 121.633 111.267 121.5 112.3C121.4 113.3 121.217 114.233 120.95 115.1H104C103.2 115.1 102.117 115.1 100.75 115.1C99.3833 115.067 97.9833 115.05 96.55 115.05C95.1167 115.017 93.8833 114.983 92.85 114.95V104.25C93.8833 104.217 95.1167 104.2 96.55 104.2C97.9833 104.167 99.3833 104.15 100.75 104.15C102.117 104.117 103.2 104.1 104 104.1H120.95ZM126.65 75.7C126.85 76.7 126.967 77.65 127 78.55C127.033 79.4167 127.05 80.2333 127.05 81C127.05 81.7667 126.967 82.7 126.8 83.8C126.633 84.9 126.367 85.9667 126 87H104C103.2 87 102.117 87 100.75 87C99.3833 86.9667 97.9833 86.9333 96.55 86.9C95.1167 86.8667 93.8833 86.8333 92.85 86.8V75.7H126.65ZM128.85 132.9C128.85 136.733 128.25 139.583 127.05 141.45C125.883 143.283 123.55 144.2 120.05 144.2H92.85V133.35C94.75 133.25 96.5833 133.15 98.35 133.05C100.15 132.95 102.167 132.9 104.4 132.9H128.85ZM178.357 129.75C178.357 131.517 178.59 133.15 179.057 134.65C179.524 136.117 180.224 137.25 181.157 138.05C180.89 139.217 180.324 140.467 179.457 141.8C178.624 143.133 177.757 144.117 176.857 144.75C172.99 144.417 170.14 142.9 168.307 140.2C166.507 137.5 165.607 134.3 165.607 130.6V71.1L166.257 70.45H171.307C173.94 70.45 175.774 71.0667 176.807 72.3C177.84 73.5 178.357 75.5667 178.357 78.5V129.75ZM135.757 119.75C135.757 113.917 136.674 109.05 138.507 105.15C140.34 101.25 142.74 98.3333 145.707 96.4C148.707 94.4333 151.924 93.45 155.357 93.45C158.69 93.45 161.69 94.1333 164.357 95.5C167.057 96.8333 169.54 98.2667 171.807 99.8L169.957 109.5C168.024 107.967 165.957 106.567 163.757 105.3C161.59 104.033 159.49 103.4 157.457 103.4C155.724 103.4 154.24 104.033 153.007 105.3C151.774 106.533 150.807 108.383 150.107 110.85C149.44 113.283 149.107 116.283 149.107 119.85C149.107 123.35 149.44 126.2 150.107 128.4C150.774 130.6 151.674 132.217 152.807 133.25C153.974 134.25 155.224 134.75 156.557 134.75C157.924 134.75 159.407 134.367 161.007 133.6C162.64 132.833 164.19 131.517 165.657 129.65C167.124 127.783 168.274 125.233 169.107 122L171.957 130.25C171.49 132.75 170.39 135.167 168.657 137.5C166.924 139.8 164.74 141.7 162.107 143.2C159.474 144.667 156.54 145.4 153.307 145.4C149.407 145.4 146.14 144.317 143.507 142.15C140.907 139.983 138.957 136.967 137.657 133.1C136.39 129.233 135.757 124.783 135.757 119.75ZM233.125 129.85C233.125 131.617 233.358 133.25 233.825 134.75C234.292 136.25 234.992 137.383 235.925 138.15C235.658 139.35 235.092 140.6 234.225 141.9C233.392 143.167 232.525 144.117 231.625 144.75C227.758 144.417 224.858 142.883 222.925 140.15C221.025 137.417 220.075 134.2 220.075 130.5V94.35C220.975 94.1833 221.992 94.0667 223.125 94C224.292 93.9 225.458 93.85 226.625 93.85C227.725 93.85 228.842 93.9 229.975 94C231.142 94.0667 232.192 94.1833 233.125 94.35V129.85ZM191.925 105.9C191.925 104.067 191.758 102.333 191.425 100.7C191.125 99.0667 190.592 97.65 189.825 96.45C190.792 95.6167 191.992 94.95 193.425 94.45C194.858 93.9167 196.375 93.65 197.975 93.65C200.575 93.65 202.392 94.35 203.425 95.75C204.458 97.1167 204.975 99.1333 204.975 101.8V125.1C204.975 127.867 205.342 129.9 206.075 131.2C206.808 132.5 208.175 133.15 210.175 133.15C211.542 133.15 213.042 132.817 214.675 132.15C216.308 131.45 217.892 130.417 219.425 129.05C220.958 127.683 222.242 126 223.275 124V135.8C221.008 138.233 218.375 140.367 215.375 142.2C212.408 144 209.125 144.9 205.525 144.9C202.458 144.9 199.908 144.167 197.875 142.7C195.875 141.2 194.375 139.15 193.375 136.55C192.408 133.95 191.925 131.017 191.925 127.75V105.9Z" fill="black"/>
<path d="M301.61 109.85C301.61 113.75 301.343 117.5 300.81 121.1C300.277 124.667 299.227 128.017 297.66 131.15C296.127 134.25 293.793 137.033 290.66 139.5C289.16 140.7 287.36 141.667 285.26 142.4C283.16 143.133 281.01 143.667 278.81 144C276.61 144.367 274.593 144.55 272.76 144.55C269.993 144.55 267.36 144.533 264.86 144.5C262.36 144.467 259.843 144.417 257.31 144.35C254.777 144.283 252.06 144.217 249.16 144.15L248.46 143.45V76.25L249.16 75.55C252.027 75.45 254.727 75.3833 257.26 75.35C259.793 75.2833 262.31 75.25 264.81 75.25C267.343 75.2167 269.993 75.2 272.76 75.2C274.593 75.2 276.61 75.3667 278.81 75.7C281.043 76.0333 283.21 76.5833 285.31 77.35C287.41 78.0833 289.193 79.05 290.66 80.25C293.76 82.7167 296.077 85.5167 297.61 88.65C299.177 91.75 300.227 95.1 300.76 98.7C301.327 102.267 301.61 105.983 301.61 109.85ZM287.76 109.85C287.76 107.083 287.577 104.283 287.21 101.45C286.843 98.6167 286.143 96.0333 285.11 93.7C284.11 91.3333 282.61 89.4333 280.61 88C278.643 86.5333 276.027 85.8 272.76 85.8C270.86 85.8 269.06 85.7833 267.36 85.75C265.693 85.7167 263.86 85.7 261.86 85.7V133.95C263.86 133.917 265.693 133.917 267.36 133.95C269.06 133.95 270.86 133.95 272.76 133.95C276.027 133.95 278.643 133.233 280.61 131.8C282.61 130.333 284.11 128.417 285.11 126.05C286.143 123.65 286.843 121.033 287.21 118.2C287.577 115.367 287.76 112.583 287.76 109.85ZM323.463 113.5C324.663 111.933 325.997 110.3 327.463 108.6C328.963 106.867 330.313 105.317 331.513 103.95L331.213 103.5C330.113 103.633 328.797 103.75 327.263 103.85C325.763 103.95 324.23 104.033 322.663 104.1C321.097 104.167 319.663 104.2 318.363 104.2H309.313C309.147 103.533 309.03 102.833 308.963 102.1C308.897 101.367 308.863 100.717 308.863 100.15C308.863 99.2167 308.93 98.25 309.063 97.25C309.197 96.25 309.363 95.2833 309.563 94.35H343.763C344.363 96.0167 344.813 97.4333 345.113 98.6C345.413 99.7667 345.563 100.8 345.563 101.7C345.563 102.333 345.447 103.017 345.213 103.75C345.013 104.483 344.663 105.167 344.163 105.8L329.963 124.75C328.83 126.25 327.58 127.85 326.213 129.55C324.88 131.217 323.597 132.733 322.363 134.1L322.663 134.55C324.163 134.383 325.647 134.267 327.113 134.2C328.613 134.1 329.963 134.05 331.163 134.05H335.263C337.163 134.05 338.98 133.95 340.713 133.75C342.447 133.517 343.98 133.1 345.313 132.5C345.78 133.6 346.113 134.583 346.313 135.45C346.513 136.283 346.613 137.15 346.613 138.05C346.613 139.85 346.063 141.3 344.963 142.4C343.897 143.467 341.963 144 339.163 144H309.163C308.597 142.333 308.18 141.017 307.913 140.05C307.68 139.05 307.563 138.15 307.563 137.35C307.563 136.617 307.697 135.833 307.963 135C308.263 134.167 308.763 133.283 309.463 132.35L323.463 113.5Z" fill="url(#paint1_linear_148_2)"/>
<defs>
<linearGradient id="paint0_linear_148_2" x1="58.7018" y1="38.1929" x2="92.496" y2="108.701" gradientUnits="userSpaceOnUse">
<stop/>
<stop offset="1" stop-color="#B5A663" stop-opacity="0"/>
</linearGradient>
<linearGradient id="paint1_linear_148_2" x1="243.5" y1="50" x2="243.5" y2="370" gradientUnits="userSpaceOnUse">
<stop/>
<stop offset="1" stop-color="#FFE46B" stop-opacity="0"/>
</linearGradient>
<clipPath id="clip0_148_2">
<rect width="116.312" height="92.6678" fill="white" transform="translate(0 50.2719) rotate(-25.6082)"/>
</clipPath>
</defs>
</svg>
